HIERARCHY
ROOT Hips
{
	OFFSET -315.162994 89.907501 301.003998 
	CHANNELS 6 Xposition Yposition Zposition Zrotation Xrotation Yrotation
	JOINT ToSpine
	{
		OFFSET -0.010506 1.389070 -7.139560 
		CHANNELS 3 Zrotation Xrotation Yrotation
		JOINT Spine
		{
			OFFSET 0.010506 10.000000 1.000000 
			CHANNELS 3 Zrotation Xrotation Yrotation
			JOINT Spine1
			{
				OFFSET 0.000000 12.000000 1.606370 
				CHANNELS 3 Zrotation Xrotation Yrotation
				JOINT Neck
				{
					OFFSET 0.000000 27.000000 2.266580 
					CHANNELS 3 Zrotation Xrotation Yrotation
					JOINT Head
					{
						OFFSET 0.000000 9.000000 2.127050 
						CHANNELS 3 Zrotation Xrotation Yrotation
						End Site
						{
							OFFSET 0.000000 11.000000 2.000000 
						}
					}
				}
				JOINT LeftShoulder
				{
					OFFSET 8.000000 19.610901 2.864520 
					CHANNELS 3 Zrotation Xrotation Yrotation
					JOINT LeftArm
					{
						OFFSET 12.000000 1.000000 0.681055 
						CHANNELS 3 Zrotation Xrotation Yrotation
						JOINT LeftForeArm
						{
							OFFSET 19.000000 0.000000 -1.526080 
							CHANNELS 3 Zrotation Xrotation Yrotation
							JOINT LeftHand
							{
								OFFSET 23.000000 0.000000 0.000000 
								CHANNELS 3 Zrotation Xrotation Yrotation
								End Site
								{
									OFFSET 10.000000 0.000000 0.000000 
								}
							}
						}
					}
				}
				JOINT RightShoulder
				{
					OFFSET -8.000000 19.610901 2.864520 
					CHANNELS 3 Zrotation Xrotation Yrotation
					JOINT RightArm
					{
						OFFSET -12.000000 1.000000 0.681055 
						CHANNELS 3 Zrotation Xrotation Yrotation
						JOINT RightForeArm
						{
							OFFSET -19.000000 0.000000 -1.526080 
							CHANNELS 3 Zrotation Xrotation Yrotation
							JOINT RightHand
							{
								OFFSET -23.000000 0.000000 0.000000 
								CHANNELS 3 Zrotation Xrotation Yrotation
								End Site
								{
									OFFSET -10.000000 0.000000 0.000000 
								}
							}
						}
					}
				}
			}
		}
	}
	JOINT LeftUpLeg
	{
		OFFSET 9.000000 -7.172450 0.000000 
		CHANNELS 3 Zrotation Xrotation Yrotation
		JOINT LeftLeg
		{
			OFFSET 0.000000 -44.111301 0.000000 
			CHANNELS 3 Zrotation Xrotation Yrotation
			JOINT LeftFoot
			{
				OFFSET 0.000000 -36.182899 0.000000 
				CHANNELS 3 Zrotation Xrotation Yrotation
				JOINT LeftToeBase
				{
					OFFSET 0.000000 -4.841840 13.000000 
					CHANNELS 3 Zrotation Xrotation Yrotation
					End Site
					{
						OFFSET 0.000000 1.000000 6.000000 
					}
				}
			}
		}
	}
	JOINT RightUpLeg
	{
		OFFSET -9.000000 -7.172450 0.000000 
		CHANNELS 3 Zrotation Xrotation Yrotation
		JOINT RightLeg
		{
			OFFSET 0.000000 -44.055099 0.000000 
			CHANNELS 3 Zrotation Xrotation Yrotation
			JOINT RightFoot
			{
				OFFSET 0.000000 -36.146900 0.000000 
				CHANNELS 3 Zrotation Xrotation Yrotation
				JOINT RightToeBase
				{
					OFFSET 0.000000 -4.922560 13.000000 
					CHANNELS 3 Zrotation Xrotation Yrotation
					End Site
					{
						OFFSET 0.000000 1.000000 6.000000 
					}
				}
			}
		}
	}
}
MOTION
Frames: 11
Frame Time: 0.033333
0.000000 0.000000 0.000000 4.829460 2.164390 140.893005 0.000000 0.000000 0.000000 -5.045650 1.191000 -3.033890 4.142660 5.041490 -4.262330 14.551800 2.734250 -3.522490 -4.084470 -2.686810 2.009000 -26.982300 3.865260 -8.133580 -35.131500 16.845501 -31.408001 -4.224600 -9.541460 -1.529880 -9.108300 0.345922 -4.341780 28.497601 6.063810 13.912400 53.513699 5.230230 -8.702130 3.190550 -7.298040 7.123710 4.306130 0.096882 2.567250 4.591550 20.074301 8.312540 0.441098 29.272499 -22.945900 -8.487340 -17.972900 -1.338040 -3.908000 17.527201 7.297080 5.220020 -18.755699 -3.815760 2.762520 17.440001 -4.714710 -13.469400 8.508250 1.025250 3.709380 -13.666100 -5.154080 
0.000000 0.000000 0.000000 5.346780 2.453630 139.371002 0.000000 0.000000 0.000000 -2.524200 1.742750 -2.204340 1.981850 4.458950 -3.191760 13.142800 2.662090 -2.948960 -4.129350 -2.625260 2.125570 -27.758600 3.885260 -7.937320 -35.741501 18.911200 -28.859800 -5.068700 -10.610700 2.854950 -9.826390 0.364349 -4.235330 27.655001 6.049560 14.285300 53.291500 6.950180 -7.206660 3.637370 -8.094330 7.002620 3.920280 0.102739 3.014610 5.505280 16.385799 7.957270 -0.108885 39.088799 -21.221500 -8.296370 -9.399760 -0.702892 -3.492200 20.568300 5.447740 5.713050 -16.905500 -6.676870 1.779420 20.929600 -0.240170 -12.052200 4.301410 0.445485 2.810920 -9.898850 -4.609820 
0.000000 0.000000 0.000000 6.060500 2.519510 138.158005 0.000000 0.000000 0.000000 -0.455462 2.320750 -1.530460 0.520436 4.351450 -2.339610 11.891100 2.289250 -2.372040 -4.083110 -2.444370 2.255330 -29.003700 3.912020 -7.617350 -36.835899 19.527300 -25.605301 -5.684800 -10.813900 4.790890 -9.845480 0.306806 -3.556620 27.320299 6.021030 14.372600 51.981602 8.796800 -5.148280 3.929570 -7.912300 8.004480 3.372390 0.102536 3.480770 7.244430 11.474800 9.066910 0.022000 48.686401 -20.707199 -8.241990 -3.135570 -0.243996 -3.486160 20.823200 5.354890 6.701060 -13.984200 -7.203080 1.164480 21.589300 1.434410 -11.601200 1.313080 0.129155 2.715780 -9.532630 -4.122210 
0.000000 0.000000 0.000000 6.676020 2.136670 138.324005 0.000000 0.000000 0.000000 1.095730 2.744920 -1.553650 0.136936 4.531160 -2.124510 11.129900 2.527490 -2.054950 -3.751610 -2.732920 2.271420 -29.865499 3.920150 -7.379400 -38.698601 19.399000 -21.349300 -5.857070 -11.021800 4.657640 -9.742470 0.219317 -2.573880 27.238600 6.032330 14.447900 50.210400 9.535510 -2.408300 3.819530 -6.960330 8.720560 1.778040 0.056787 3.581770 8.723550 5.790190 8.304010 0.011080 56.049400 -18.926800 -5.310590 -6.065110 -0.223215 -3.293720 19.642099 5.184510 7.427050 -11.261800 -6.412010 1.549490 20.981300 0.112028 -9.176760 -1.613910 -0.115276 2.293400 -7.977240 -3.005150 
0.000000 0.000000 0.000000 6.576020 2.034070 139.095993 0.000000 0.000000 0.000000 1.785230 3.077380 -1.643290 -0.203097 4.491650 -1.915590 11.157700 3.503160 -2.290990 -3.900200 -3.629040 2.137870 -30.106600 3.906440 -7.270420 -40.860298 19.705200 -16.542900 -5.440160 -12.617100 4.791180 -9.659450 0.190836 -2.258280 26.909500 5.932150 14.321000 48.950600 9.354220 0.476908 3.549170 -6.316180 9.286210 0.795701 0.029426 3.993650 8.587460 0.004362 6.819100 0.033274 60.078701 -15.720200 0.821036 -13.448400 0.112747 -2.847140 17.666700 4.542250 7.363700 -8.727160 -5.302780 2.048350 19.825399 -1.512700 -6.947250 -4.007900 -0.248629 1.991920 -6.719880 -3.044740 
0.000000 0.000000 0.000000 5.911470 2.512850 138.951996 0.000000 0.000000 0.000000 1.927750 3.837990 -1.035550 -1.210680 4.013370 -0.984757 11.312200 4.087520 -2.722610 -4.061330 -3.913950 1.832960 -29.997400 3.841900 -7.124890 -43.134998 20.129499 -11.752800 -4.999470 -13.564500 4.032480 -9.653530 0.183314 -2.170620 26.750401 5.920850 14.370100 47.762798 8.874560 2.589870 3.250280 -6.193380 10.683300 1.363900 0.051980 4.380920 7.094810 -5.129700 6.041310 -0.002302 60.230598 -10.597700 4.059920 -17.914301 0.624384 -2.503750 15.749400 4.119760 6.690670 -5.695190 -4.355320 2.251750 17.645201 -2.251630 -6.639030 -5.161340 -0.303291 1.974160 -6.722560 -2.821290 
0.000000 0.000000 0.000000 5.097570 3.142200 138.188995 0.000000 0.000000 0.000000 2.684850 4.684610 -0.219387 -3.240110 3.597200 0.361614 10.919900 4.059270 -2.888570 -3.551000 -3.761990 1.439690 -29.846201 3.769030 -6.967320 -44.798302 21.487400 -7.002820 -4.935430 -13.906600 0.910041 -10.342900 0.187413 -2.071080 26.419100 5.892370 14.456200 46.839100 8.581370 4.506950 2.854670 -6.042340 12.841500 1.406780 0.050189 4.185480 5.162730 -9.630050 5.863200 -0.090965 57.203400 -3.940990 4.873480 -18.291500 0.783649 -2.295870 14.505000 3.870250 5.906600 -2.422180 -3.975920 2.205930 14.863000 -1.703070 -9.128450 -4.590160 -0.352501 2.588980 -9.059250 -3.445640 
0.000000 0.000000 0.000000 4.315130 3.272480 137.403000 0.000000 0.000000 0.000000 4.605990 5.034960 0.411159 -6.054440 3.450580 1.710780 10.011700 3.812530 -3.015500 -2.690910 -4.037440 0.819449 -29.753300 3.695700 -6.790040 -46.158901 23.442400 -2.281340 -5.034430 -14.043000 -3.246830 -10.682000 0.211341 -2.264320 25.680300 5.754380 14.428000 46.259998 9.167710 6.874760 2.644900 -6.197630 14.878200 1.336250 0.047192 4.167670 3.513490 -13.889500 5.459090 -0.037179 51.784500 1.090800 5.897550 -16.038900 0.824739 -2.391370 12.445600 4.681270 5.421350 0.177476 -4.197320 1.952900 12.756300 -0.388716 -11.717100 -4.530700 -0.468599 3.053640 -10.936200 -4.665300 
0.000000 0.000000 0.000000 3.922850 2.929740 136.345993 0.000000 0.000000 0.000000 7.092050 5.498850 1.036340 -8.391550 3.176420 2.988500 8.285320 3.473000 -2.837620 -1.532860 -4.517530 0.176238 -30.515400 3.654880 -6.469740 -46.719299 24.300501 1.859290 -4.914900 -13.720400 -6.658640 -10.426500 0.222636 -2.439150 24.894800 5.731670 14.784600 45.368401 9.642180 9.101830 2.584910 -6.573540 16.733700 1.246110 0.046633 4.267640 2.750650 -17.448400 4.957140 0.034841 44.882900 1.450170 5.717680 -13.633500 0.690620 -2.196230 10.185700 4.810260 5.338930 1.749280 -4.600360 1.375190 12.835600 0.758851 -11.508000 -6.746800 -0.675744 3.088070 -11.141300 -4.134750 
0.000000 0.000000 0.000000 4.101790 2.567630 135.442993 0.000000 0.000000 0.000000 9.912080 6.332340 1.651230 -10.220300 2.730330 4.129310 5.963580 3.347410 -2.648680 -0.390690 -5.033590 -0.620268 -32.297600 3.727430 -6.198270 -46.104801 24.686001 4.778150 -4.882560 -14.019100 -8.300400 -10.395900 0.207622 -2.281580 23.938801 5.706220 15.246000 44.495701 9.762010 10.746900 2.354940 -6.233470 18.619600 1.000010 0.038677 4.444630 2.423440 -19.931601 4.479720 0.024075 37.092701 -1.311630 4.881540 -10.605600 0.452360 -1.763610 8.552810 3.934370 5.426040 3.187460 -5.142660 1.121150 14.361600 1.803150 -12.170500 -9.200920 -0.985228 3.144020 -11.524300 -2.533940 
0.000000 0.000000 0.000000 4.546780 2.347900 134.735992 0.000000 0.000000 0.000000 12.839100 7.057190 2.009720 -12.315300 2.589190 5.048660 4.402270 3.229450 -2.610850 0.128963 -5.653240 -1.191520 -33.560799 3.692510 -5.800220 -45.505001 22.911200 6.460210 -4.623360 -13.991800 -8.135370 -10.244400 0.201489 -2.243820 23.638399 5.811660 15.761100 43.000401 9.875930 12.512400 2.041240 -5.402180 19.877300 1.060370 0.042392 4.568140 2.133580 -21.164499 4.305540 0.076651 28.128599 -5.544940 5.524360 -6.584320 0.310579 -1.397910 6.777090 3.280930 5.485440 4.874050 -5.853750 1.171000 16.329599 2.937110 -14.274900 -11.581000 -1.460240 3.427330 -12.609700 -2.794230 
